<?xml version="1.0" standalone="no"?>
<!DOCTYPE svg PUBLIC "-//W3C//DTD SVG 20010904//EN"
 "http://www.w3.org/TR/2001/REC-SVG-20010904/DTD/svg10.dtd">
<svg version="1.0" xmlns="http://www.w3.org/2000/svg"
 width="260.000000pt" height="260.000000pt" viewBox="0 0 260.000000 260.000000"
 preserveAspectRatio="xMidYMid meet">
<metadata>
Created by potrace 1.11, written by Peter Selinger 2001-2013
</metadata>
<g transform="translate(0.000000,260.000000) scale(0.100000,-0.100000)"
fill="#000000" stroke="none">
<path d="M1832 2588 c-7 -7 -12 -19 -12 -27 0 -9 -20 -35 -44 -58 -25 -23 -47
-51 -50 -61 -4 -10 -18 -25 -31 -32 -14 -7 -25 -17 -25 -22 0 -4 -11 -8 -25
-8 -18 0 -29 -9 -44 -37 -21 -41 -40 -60 -84 -82 -27 -14 -36 -31 -17 -31 6 0
10 -7 10 -15 0 -8 -7 -15 -15 -15 -8 0 -15 -5 -15 -11 0 -6 -9 -8 -20 -4 -27
8 -50 -11 -50 -40 0 -34 -10 -55 -26 -55 -8 0 -14 -4 -14 -10 0 -5 -11 -12
-25 -16 -14 -3 -30 -14 -35 -24 -5 -9 -23 -20 -40 -23 -24 -5 -32 -13 -36 -36
-5 -22 -13 -30 -36 -35 -27 -5 -29 -8 -23 -36 4 -19 3 -30 -4 -30 -6 0 -11 -7
-11 -15 0 -10 -10 -15 -34 -15 -35 0 -46 -13 -46 -51 0 -11 -7 -22 -15 -25 -8
-4 -15 -13 -15 -20 0 -8 -8 -18 -17 -21 -21 -8 -53 -40 -53 -52 0 -5 -9 -12
-19 -16 -11 -3 -23 -15 -26 -26 -4 -10 -11 -19 -16 -19 -12 0 -44 -32 -52 -53
-3 -9 -13 -17 -21 -17 -7 0 -16 -7 -20 -15 -3 -8 -12 -15 -20 -15 -9 0 -13 -6
-10 -14 3 -9 -3 -17 -15 -21 -11 -3 -23 -15 -26 -26 -4 -10 -11 -19 -16 -19
-11 0 -49 -37 -49 -47 0 -5 -13 -15 -29 -24 -23 -14 -28 -22 -24 -43 5 -24 2
-26 -27 -26 -23 0 -33 -5 -37 -20 -3 -11 -11 -20 -18 -20 -7 0 -15 -7 -19 -15
-3 -8 -12 -15 -21 -15 -8 0 -20 -11 -25 -25 -7 -17 -17 -25 -34 -25 -18 0 -25
-6 -28 -22 -2 -14 -15 -29 -35 -38 -22 -10 -33 -22 -33 -36 0 -12 -7 -24 -15
-28 -8 -3 -15 -12 -15 -21 0 -8 -5 -15 -10 -15 -6 0 -16 -12 -22 -26 -10 -21
-18 -25 -40 -22 -22 4 -28 1 -28 -13 0 -10 -9 -24 -19 -31 -10 -7 -26 -30 -34
-50 -8 -20 -25 -41 -36 -48 -12 -6 -21 -18 -21 -27 0 -11 -7 -14 -24 -11 -20
4 -27 -1 -39 -34 -11 -27 -21 -38 -36 -38 -21 0 -21 -2 -21 -360 l0 -360 1300
0 1300 0 0 1300 0 1300 -378 0 c-281 0 -381 -3 -390 -12z"/>
</g>
</svg>
